<?xml version="1.0" encoding="UTF-8" standalone="no"?>
<svg width="20px" height="18px" viewBox="0 0 20 18" version="1.1" xmlns="http://www.w3.org/2000/svg" xmlns:xlink="http://www.w3.org/1999/xlink">
    <!-- Generator: Sketch 40.1 (33804) - http://www.bohemiancoding.com/sketch -->
    <title>icon-linkedin</title>
    <desc>Created with Sketch.</desc>
    <defs></defs>
    <g id="Page-3" stroke="none" stroke-width="1" fill="none" fill-rule="evenodd">
        <g id="web-homepage__1.2" transform="translate(-1238.000000, -3715.000000)" fill="#FFFFFF">
            <g id="Group-2" transform="translate(0.000000, 3516.000000)">
                <path d="M1238.49917,204.772066 L1242.45921,204.772066 L1242.45921,217 L1238.49917,217 L1238.49917,204.772066 Z M1252.90249,204.654521 C1250.69167,204.654521 1249.30636,205.85198 1249.05033,206.691436 L1249.05033,204.772066 L1244.71511,204.772066 C1244.77093,205.791329 1244.71511,217 1244.71511,217 L1249.05033,217 L1249.05033,210.383111 C1249.05033,210.015446 1249.03316,209.647781 1249.1448,209.383707 C1249.44269,208.648378 1250.08302,207.885675 1251.23432,207.885675 C1252.73986,207.885675 1253.4242,209.016042 1253.4242,210.672412 L1253.4242,217 L1257.80021,217 L1257.80021,210.201157 C1257.80021,206.413406 1255.64522,204.654521 1252.90249,204.654521 Z M1240.35735,199 C1238.93231,199 1238,199.915136 1238,201.122793 C1238,202.307908 1238.90601,203.242903 1240.3026,203.242903 L1240.33051,203.242903 C1241.78131,203.242903 1242.68464,202.304687 1242.68464,201.119573 C1242.65673,199.912989 1241.78131,199 1240.35735,199 Z" id="icon-linkedin"></path>
            </g>
        </g>
    </g>
</svg>