<?xml version="1.0" encoding="UTF-8" standalone="no"?>
<svg width="21px" height="18px" viewBox="0 0 21 18" version="1.1" xmlns="http://www.w3.org/2000/svg" xmlns:xlink="http://www.w3.org/1999/xlink">
    <!-- Generator: Sketch 40.1 (33804) - http://www.bohemiancoding.com/sketch -->
    <title>1475091891_66-wechat</title>
    <desc>Created with Sketch.</desc>
    <defs></defs>
    <g id="Page-3" stroke="none" stroke-width="1" fill="none" fill-rule="evenodd">
        <g id="web-homepage__1.2" transform="translate(-1288.000000, -3715.000000)" fill="#FFFFFF">
            <g id="Group-2" transform="translate(0.000000, 3516.000000)">
                <g id="1475091891_66-wechat" transform="translate(1288.000000, 199.000000)">
                    <g id="Group">
                        <path d="M14.0294864,5.96254091 C12.1592045,6.06023182 10.5328636,6.62723182 9.21248182,7.90813636 C7.87843636,9.20225455 7.26946364,10.7880545 7.43592273,12.7538591 C6.70491818,12.6633273 6.03908182,12.5636727 5.36944091,12.5073 C5.13818182,12.4878273 4.86372273,12.5154818 4.66785,12.6260182 C4.01764091,12.9929318 3.39426818,13.4071773 2.65545,13.869 C2.79102273,13.2558545 2.87877273,12.7189227 3.03410455,12.2024864 C3.14836364,11.8229318 3.09542727,11.6116773 2.74577727,11.3644636 C0.500645455,9.77935909 -0.445704545,7.40716364 0.262513636,4.96493182 C0.917754545,2.70560455 2.52687273,1.33539545 4.7133,0.621122727 C7.69757727,-0.353659091 11.0513455,0.640677273 12.8659909,3.01000909 C13.5213955,3.86586818 13.9232864,4.82645455 14.0294864,5.96254091 L14.0294864,5.96254091 Z M5.42184545,5.20155 C5.43906818,4.75486364 5.05202727,4.35244091 4.59225,4.33898182 C4.12155,4.32515455 3.73438636,4.68486818 3.72064091,5.14869545 C3.70673182,5.61878182 4.06628182,5.99551364 4.54041818,6.00754091 C5.01046364,6.01948636 5.40445909,5.65928182 5.42184545,5.20155 L5.42184545,5.20155 Z M9.91280455,4.33869545 C9.45135,4.34720455 9.06144545,4.74021818 9.06962727,5.18866364 C9.07805455,5.65351364 9.46055455,6.01715455 9.93505909,6.01146818 C10.4107909,6.00574091 10.7716091,5.63821364 10.7671091,5.16358636 C10.7631409,4.69763182 10.3823591,4.33010455 9.91280455,4.33869545 L9.91280455,4.33869545 Z" id="Shape"></path>
                        <path d="M18.2313409,17.6222864 C17.6391409,17.3585864 17.0958682,16.9629545 16.5174955,16.9025318 C15.9413318,16.8423545 15.3356727,17.1747409 14.7328773,17.2363909 C12.8967545,17.4242455 11.2518,16.9125136 9.89541818,15.6581591 C7.31573182,13.2721364 7.68436364,9.61363636 10.6689273,7.65830455 C13.3215136,5.92048636 17.2116818,6.49984091 19.0818409,8.91110455 C20.7139091,11.0151818 20.5220864,13.8082909 18.5296909,15.5758909 C17.9531591,16.0874591 17.7456682,16.5084545 18.1156091,17.1828409 C18.1838864,17.3073682 18.1917,17.4650318 18.2313409,17.6222864 L18.2313409,17.6222864 Z M11.4900955,11.0953636 C11.8671136,11.0957318 12.1775727,10.8006955 12.19185,10.4283 C12.2069045,10.0340591 11.8898182,9.70339091 11.4950455,9.70175455 C11.1042,9.69999545 10.7767636,10.0352864 10.7903455,10.4236773 C10.80315,10.7947636 11.1157773,11.0949136 11.4900955,11.0953636 L11.4900955,11.0953636 Z M15.8358273,9.70330909 C15.4700182,9.70077273 15.1591909,10.0002273 15.1442591,10.3698409 C15.1284273,10.7651045 15.4356136,11.0896773 15.8267864,11.0906591 C16.2051136,11.0918864 16.5040364,10.8057682 16.5177818,10.4293227 C16.5324682,10.0331591 16.2251182,9.70600909 15.8358273,9.70330909 L15.8358273,9.70330909 Z" id="Shape"></path>
                    </g>
                </g>
            </g>
        </g>
    </g>
</svg>