<?xml version="1.0" encoding="UTF-8" standalone="no"?>
<svg width="18px" height="18px" viewBox="0 0 18 18" version="1.1" xmlns="http://www.w3.org/2000/svg" xmlns:xlink="http://www.w3.org/1999/xlink">
    <!-- Generator: Sketch 40.1 (33804) - http://www.bohemiancoding.com/sketch -->
    <title>icon-fb</title>
    <desc>Created with Sketch.</desc>
    <defs></defs>
    <g id="Page-3" stroke="none" stroke-width="1" fill="none" fill-rule="evenodd">
        <g id="web-homepage__1.2" transform="translate(-1190.000000, -3715.000000)" fill="#FFFFFF">
            <g id="Group-2" transform="translate(0.000000, 3516.000000)">
                <path d="M1207.99951,216.006156 C1207.99951,216.554805 1207.5548,217 1207.00616,217 L1202.41937,217 L1202.41937,210.029364 L1204.7591,210.029364 L1205.10966,207.313086 L1202.41937,207.313086 L1202.41937,205.578394 C1202.41937,204.791948 1202.63805,204.256047 1203.76574,204.256047 L1205.20429,204.255557 L1205.20429,201.825616 C1204.95522,201.792765 1204.1016,201.71873 1203.10825,201.71873 C1201.03427,201.71873 1199.61435,202.984692 1199.61435,205.309708 L1199.61435,207.313086 L1197.26874,207.313086 L1197.26874,210.029364 L1199.61435,210.029364 L1199.61435,217 L1190.99335,217 C1190.4447,217 1190,216.554805 1190,216.006156 L1190,199.993844 C1190,199.444705 1190.4447,199 1190.99335,199 L1207.00616,199 C1207.5548,199 1207.99951,199.444705 1207.99951,199.993844 L1207.99951,216.006156" id="icon-fb"></path>
            </g>
        </g>
    </g>
</svg>