<?xml version="1.0" standalone="no"?>
<!DOCTYPE svg PUBLIC "-//W3C//DTD SVG 1.1//EN" "http://www.w3.org/Graphics/SVG/1.1/DTD/svg11.dtd" >
<svg xmlns="http://www.w3.org/2000/svg">
<metadata>
Created by FontPrep 20130207 at Tue May  3 14:49:28 2016
 By Victor
Copyright (c) 2011-2012, Jonathan Pinhorn (jonpinhorn.typedesign@gmail.com), with Reserved Font Names 'Karla'
</metadata>
<defs>
<font id="c942a47632aeb474c2837bb3ad21cacb" horiz-adv-x='1024' >
  <font-face 
    font-family="Karla-Bold"
    font-weight="700"
    font-stretch="normal"
    units-per-em="2048"
    panose-1="0 0 0 0 0 0 0 0 0 0"
    ascent="1638"
    descent="-410"
    x-height="995"
    cap-height="1329"
    bbox="-156 -514 1998.01 1870"
    underline-thickness="102"
    underline-position="-102"
    unicode-range="U+0020-2212"
  />
<missing-glyph horiz-adv-x="1206" 
 />
    <glyph glyph-name=".notdef" horiz-adv-x="1206" 
 />
    <glyph glyph-name=".null" horiz-adv-x="0" 
 />
    <glyph glyph-name="nonmarkingreturn" horiz-adv-x="1206" 
 />
    <glyph glyph-name="space" unicode=" " horiz-adv-x="518" 
 />
    <glyph glyph-name="space" unicode="&#xa0;" horiz-adv-x="518" 
 />
    <glyph glyph-name="exclam" unicode="!" horiz-adv-x="600" 
d="M139 142q0 70 47 116q47 47 121 47t123 -47t49 -117q0 -71 -49 -115t-123 -44t-121 45t-47 115zM176 1360h262l-28 -911h-207z" />
    <glyph glyph-name="quotedbl" unicode="&#x22;" horiz-adv-x="784" 
d="M719 1405l-33 -487h-178l-31 487h242zM307 1405l-33 -487h-178l-30 487h241z" />
    <glyph glyph-name="numbersign" unicode="#" horiz-adv-x="1388" 
d="M549 494h278l35 323h-278zM811 336h-279l-28 -268h-228l29 268h-188l14 158h191l34 323h-190l16 160h191l28 264h228l-29 -264h279l28 264h228l-29 -264h192l-18 -160h-190l-35 -323h192l-16 -158h-193l-28 -268h-228z" />
    <glyph glyph-name="dollar" unicode="$" horiz-adv-x="1411" 
d="M422 990q0 -58 33 -92t104 -58l62 -25v330q-99 -12 -149 -55q-50 -42 -50 -100zM954 252q51 45 52 106q0 117 -148 172l-65 25v-358q110 10 161 55zM1278 348q0 -139 -119 -246q-131 -113 -366 -129v-180h-172v184q-213 20 -351 131t-137 308h240q0 -98 63 -150t185 -65
v397l-103 35q-172 57 -266 138t-94 226t117 243q118 97 346 114v155h172v-157q374 -38 436 -389h-240q-10 61 -60 109t-136 67v-373l180 -64q153 -53 229 -134t76 -220z" />
    <glyph glyph-name="percent" unicode="%" horiz-adv-x="1566" 
d="M1174 440q-98 0 -98 -156t98 -157q44 0 72 36t28 121q0 84 -28 120t-72 36zM1174 594q116 0 198 -79t82 -231t-81 -232q-81 -81 -199 -81t-200 81q-81 81 -81 233q0 153 82 231t199 78zM1118 1329h244l-899 -1329h-246zM305 1046q-1 -156 99 -157q100 0 100 157t-101 156
q-98 0 -98 -156zM686 1048q0 -150 -81 -232q-81 -81 -200 -81t-199 81t-81 232q0 152 82 230q81 78 199 78t199 -79t81 -229z" />
    <glyph glyph-name="ampersand" unicode="&#x26;" horiz-adv-x="1976" 
d="M825 1143q-84 0 -130 -44t-46 -106q0 -90 96 -174l48 -43q110 48 160 101q51 53 51 119t-48 107q-48 40 -131 40zM700 582q-246 -35 -245 -189q1 -86 75 -144q74 -59 220 -59t282 91zM748 -29q-240 0 -400 118t-160 290q0 266 375 326l-33 30q-147 133 -147 283t121 242
q122 92 324 92t322 -92t120 -224q0 -133 -85 -224t-259 -157l260 -235q125 150 215 375l164 -90q-90 -256 -226 -424l35 -31q37 -33 70 -49q33 -17 81 -17t83 36t39 116h219q-4 -168 -83 -266t-235 -99q-98 0 -181 39t-175 123q-204 -162 -444 -162z" />
    <glyph glyph-name="quotesingle" unicode="'" horiz-adv-x="368" 
d="M305 1386l-33 -487h-178l-31 487h242z" />
    <glyph glyph-name="parenleft" unicode="(" horiz-adv-x="819" 
d="M150 653q0 514 428 891l174 -127q-176 -184 -264 -369q-88 -184 -89 -396q0 -212 88 -395t265 -368l-174 -131q-428 381 -428 895z" />
    <glyph glyph-name="parenright" unicode=")" horiz-adv-x="819" 
d="M670 653q0 -510 -428 -895l-176 131q178 183 266 367t88 395t-89 397t-265 369l176 127q428 -381 428 -891z" />
    <glyph glyph-name="asterisk" unicode="*" horiz-adv-x="837" 
d="M330 1081l-228 76l62 143l203 -102l-25 244h164l-25 -244l203 107l61 -146l-223 -76l176 -168l-120 -104l-152 207l-156 -207l-116 104z" />
    <glyph glyph-name="plus" unicode="+" horiz-adv-x="1114" 
d="M678 1006v-398h399v-211h-399v-397h-242v397h-399v211h399v398h242z" />
    <glyph glyph-name="comma" unicode="," horiz-adv-x="518" 
d="M100 132q0 60 47 104t129 43q82 1 134 -63t51 -157q0 -150 -135 -272q-43 -39 -97 -66l-180 91q68 36 120 78t69 100q-58 10 -98 46t-40 96z" />
    <glyph glyph-name="hyphen" unicode="-" horiz-adv-x="763" 
d="M94 723h576v-211h-576v211z" />
    <glyph glyph-name="period" unicode="." horiz-adv-x="440" 
d="M49 142q0 70 47 116q47 47 121 47t123 -47t49 -117q0 -71 -49 -115t-123 -44t-121 45t-47 115z" />
    <glyph glyph-name="slash" unicode="/" horiz-adv-x="966" 
d="M635 1526h248l-529 -1692h-245z" />
    <glyph glyph-name="zero" unicode="0" horiz-adv-x="1296" 
d="M648 1137q-144 0 -223 -122t-79 -351q0 -230 79 -350t223 -120t223 120t79 350t-79 351q-79 122 -223 122zM1200 664q0 -340 -150 -516t-402 -177q-252 0 -402 174q-150 175 -150 519t150 518t402 174q253 0 396 -170q156 -182 156 -522z" />
    <glyph glyph-name="one" unicode="1" horiz-adv-x="731" 
d="M539 1337v-1337h-242v1049q-104 -51 -211 -52v232q154 23 270 108h183z" />
    <glyph glyph-name="two" unicode="2" horiz-adv-x="1239" 
d="M365 221h759v-221h-1001v227q0 240 170 348q57 37 133 66l272 104q90 35 132 87t42 131q0 78 -55 130t-157 52t-170 -49q-67 -49 -76 -146h-269q3 195 143 300q140 106 356 106t352 -113t136 -279t-82 -264q-83 -100 -257 -168l-277 -106q-80 -31 -116 -69t-35 -97v-39z
" />
    <glyph glyph-name="three" unicode="3" horiz-adv-x="1273" 
d="M463 580v190h151q117 0 183 50t65 132q0 82 -56 134t-173 51q-223 0 -260 -170h-254q19 197 155 293t352 96t356 -104t140 -267q0 -102 -55 -177t-164 -112q121 -41 194 -122t73 -185q-1 -196 -147 -307q-147 -111 -377 -111t-384 115q-172 125 -172 332h258
q6 -104 85 -164t206 -59q127 0 198 56t70 143q0 184 -268 186h-176z" />
    <glyph glyph-name="four" unicode="4" horiz-adv-x="1218" 
d="M731 477v508l-399 -508h399zM958 1343v-841h232v-207h-232v-295h-239v295h-674v182l680 866h233z" />
    <glyph glyph-name="five" unicode="5" horiz-adv-x="1191" 
d="M659 827q207 0 330 -99t123 -294q0 -194 -141 -328t-361 -134t-355 112q-134 113 -138 313h248q-1 -104 69 -153t178 -49q108 1 180 71q71 70 70 176q0 203 -274 203h-406l62 684h796v-221h-563l-28 -299q111 18 210 18z" />
    <glyph glyph-name="six" unicode="6" horiz-adv-x="1243" 
d="M430 404q0 -96 67 -153q67 -56 163 -56t165 56q68 56 68 152q-1 97 -67 155t-164 58t-165 -58t-67 -154zM683 1137q-158 1 -251 -139q-92 -140 -92 -377q0 -88 6 -134q23 176 126 252t247 76q184 0 304 -117t120 -305t-133 -305t-348 -117q-250 1 -408 189t-158 481
q0 340 156 527t420 188q200 0 324 -108t132 -283h-258q-10 80 -57 126t-130 46z" />
    <glyph glyph-name="seven" unicode="7" horiz-adv-x="1019" 
d="M983 1329v-231l-567 -1098h-326l608 1096h-649v233h934z" />
    <glyph glyph-name="eight" unicode="8" horiz-adv-x="1325" 
d="M928 960q0 80 -74 129q-74 48 -190 48t-193 -43q-76 -43 -76 -120t135 -132l154 -60q98 0 172 49q72 49 72 129zM975 332q0 58 -38 95q-38 36 -103 62l-213 80q-186 -12 -252 -118q-19 -31 -19 -72t25 -76q77 -108 297 -108q148 -1 226 39q77 40 77 98zM1178 975
q0 -100 -69 -179t-198 -102q170 -68 242 -144t72 -198q0 -170 -151 -275q-152 -105 -408 -105t-412 110q-154 106 -154 276q0 125 87 202t223 93q-178 86 -242 224q-23 51 -23 116q1 168 135 265q134 98 366 98t382 -108t150 -273z" />
    <glyph glyph-name="nine" unicode="9" horiz-adv-x="1249" 
d="M358 923q0 -99 67 -155t164 -55q97 0 165 59q68 58 68 152t-68 152q-66 58 -164 58t-165 -56t-67 -155zM600 195q311 0 311 512q0 55 -8 120q-27 -161 -127 -237t-246 -76q-186 0 -304 118t-118 304t134 303q132 117 360 117t390 -186t163 -484q0 -514 -307 -666
q-102 -49 -222 -49q-224 0 -364 117q-139 117 -139 305h252q5 -92 67 -145t158 -53z" />
    <glyph glyph-name="colon" unicode=":" horiz-adv-x="552" 
d="M272 948q74 0 123 -47t49 -117t-49 -114t-123 -45q-74 0 -120 45q-48 44 -48 114t48 117q46 47 120 47zM272 340q74 0 123 -47t49 -117t-49 -115t-123 -45t-120 45q-47 45 -48 115q0 70 48 117q46 47 120 47z" />
    <glyph glyph-name="semicolon" unicode=";" horiz-adv-x="630" 
d="M174 784q0 70 47 117t121 47t123 -47t49 -117t-49 -114t-123 -45q-74 0 -121 45q-47 44 -47 114zM162 132q0 60 47 104t129 43q82 1 133 -63t51 -157q0 -150 -135 -272q-43 -39 -96 -66l-180 91q67 36 119 78t69 100q-57 10 -97 46t-40 96z" />
    <glyph glyph-name="less" unicode="&#x3c;" horiz-adv-x="1028" 
d="M936 1079l-596 -420l596 -417l-160 -185l-684 494v219l684 494z" />
    <glyph glyph-name="equal" unicode="=" horiz-adv-x="1036" 
d="M874 836v-209h-712v209h712zM874 406v-211h-712v211h712z" />
    <glyph glyph-name="greater" unicode="&#x3e;" horiz-adv-x="1028" 
d="M252 1264l684 -494v-219l-684 -494l-160 185l594 417l-594 420z" />
    <glyph glyph-name="question" unicode="?" horiz-adv-x="1058" 
d="M484 293q74 0 124 -45q49 -45 49 -115t-49 -116t-124 -46q-74 0 -120 46t-47 116q1 70 47 115t120 45zM993 985q0 -109 -53 -181q-52 -72 -158 -126q-106 -53 -136 -88t-38 -65t-8 -68v-60h-242v82q0 184 111 262q39 29 115 68t110 79t33 102q0 62 -51 104
q-52 42 -152 43q-100 0 -157 -48t-66 -126h-252q10 177 131 285t339 108t346 -106t128 -265z" />
    <glyph glyph-name="at" unicode="@" horiz-adv-x="2103" 
d="M1253 182q-89 -170 -242 -170t-255 107q-104 113 -105 274q-1 211 145 359t349 149q135 0 216 -81t81 -245v-268q0 -104 71 -104q85 0 154 92q88 115 88 305q0 238 -164 388t-444 151q-338 0 -552 -207t-214 -513t208 -486t576 -181v-198q-233 0 -423 68
q-383 139 -532 464q-73 160 -73 356t76 366q154 347 531 481q186 67 390 67q392 0 630 -219q112 -103 173 -241t61 -288q1 -276 -147 -436t-349 -160q-95 0 -156 36t-80 102zM1247 573q0 142 -100 142q-104 0 -186 -84q-90 -98 -91 -234q0 -92 48 -140t120 -48t120 40
t89 120v204z" />
    <glyph glyph-name="A" unicode="A" horiz-adv-x="1282" 
d="M457 469h372l-184 571zM498 1329h303l436 -1329h-256l-92 287h-494l-94 -287h-256z" />
    <glyph glyph-name="B" unicode="B" horiz-adv-x="1327" 
d="M432 768h285q109 0 164 47t55 128t-54 129t-163 48h-287v-352zM723 211q117 0 169 47t52 125t-54 126t-167 48h-291v-346h291zM190 1329h537q221 0 339 -100t118 -252q0 -113 -62 -193t-176 -112q113 -23 187 -102t73 -201q0 -246 -243 -336q-92 -33 -234 -33h-539v1329z
" />
    <glyph glyph-name="C" unicode="C" horiz-adv-x="1298" 
d="M674 1137q-139 0 -228 -122q-90 -122 -90 -346q0 -225 82 -351t224 -126t212 70q72 68 72 176h260q0 -223 -142 -345t-398 -122q-256 1 -413 187t-157 512t159 506t401 180t375 -108q134 -108 173 -298l-258 -47q-33 104 -101 169q-69 65 -171 65z" />
    <glyph glyph-name="D" unicode="D" horiz-adv-x="1404" 
d="M432 219h189q188 0 302 125q113 125 113 322q0 196 -112 320t-303 124h-189v-891zM621 1329q303 0 490 -180t187 -484q0 -305 -187 -485t-490 -180h-433v1329h433z" />
    <glyph glyph-name="E" unicode="E" horiz-adv-x="1200" 
d="M188 1329h856v-209h-614v-350h576v-209h-576v-350h614v-211h-856v1329z" />
    <glyph glyph-name="F" unicode="F" horiz-adv-x="1120" 
d="M190 1329h838v-209h-596v-350h545v-207h-545v-563h-242v1329z" />
    <glyph glyph-name="G" unicode="G" horiz-adv-x="1386" 
d="M673 -29q-247 0 -412 192q-165 193 -165 503t177 500t452 190q186 0 312 -81t198 -255l-248 -57q-109 174 -267 174t-261 -130q-103 -129 -103 -343t94 -342t235 -127q142 0 227 85t85 234v8l-299 6v156h531v-684h-197l-26 211q-86 -240 -333 -240z" />
    <glyph glyph-name="H" unicode="H" horiz-adv-x="1445" 
d="M432 1329v-555h580v555h241v-1329h-241v563h-580v-563h-242v1329h242z" />
    <glyph glyph-name="I" unicode="I" 
d="M190 1329h242v-1329h-242v1329z" />
    <glyph glyph-name="J" unicode="J" horiz-adv-x="909" 
d="M338 207q88 0 128 51t40 156v915h244v-915q0 -230 -104 -336t-277 -106q-172 0 -336 83v242q158 -90 305 -90z" />
    <glyph glyph-name="K" unicode="K" horiz-adv-x="1339" 
d="M434 1329v-547l524 547h332l-585 -598l624 -731h-313l-473 563l-109 -110v-453h-244v1329h244z" />
    <glyph glyph-name="L" unicode="L" horiz-adv-x="1011" 
d="M432 211h547v-211h-789v1329h242v-1118z" />
    <glyph glyph-name="M" unicode="M" horiz-adv-x="1789" 
d="M1599 1329v-1329h-243v1010l-377 -865h-158l-389 893v-1038h-242v1329h347l364 -790l365 790h333z" />
    <glyph glyph-name="N" unicode="N" horiz-adv-x="1468" 
d="M1036 1329h242v-1329h-246l-604 975v-975h-242v1329h265l585 -942v942z" />
    <glyph glyph-name="O" unicode="O" horiz-adv-x="1398" 
d="M700 1139q-162 0 -258 -124t-96 -352q0 -229 96 -351t258 -122t257 122t95 350t-95 353q-95 124 -257 124zM1303 665q0 -337 -168 -522q-159 -172 -435 -172t-440 179q-164 180 -164 518t162 513t439 175q276 0 441 -177t165 -514z" />
    <glyph glyph-name="P" unicode="P" horiz-adv-x="1189" 
d="M653 694q113 0 170 60t58 152q1 94 -57 154t-171 60h-225v-426h225zM653 483h-225v-483h-244v1329h469q226 1 352 -109q125 -110 125 -314t-126 -314t-351 -109z" />
    <glyph glyph-name="Q" unicode="Q" horiz-adv-x="1404" 
d="M700 1139q-162 0 -258 -124t-96 -352q0 -229 96 -351t258 -122t257 122t95 350t-95 353q-95 124 -257 124zM1104 -369q-199 0 -336 207l-88 133q-264 4 -422 181q-162 186 -162 520t163 509t438 175t441 -177t165 -513q-1 -276 -107 -442t-287 -222l33 -51
q90 -140 344 -33v-250q-84 -37 -182 -37z" />
    <glyph glyph-name="R" unicode="R" horiz-adv-x="1318" 
d="M659 680q133 0 201 60t68 160t-62 160t-184 60h-250v-440h227zM1178 922q0 -142 -80 -242t-230 -139l357 -541h-316l-293 518h-184v-518h-242v1329h492q236 -1 366 -111t130 -296z" />
    <glyph glyph-name="S" unicode="S" horiz-adv-x="1306" 
d="M373 416q0 -221 305 -221q84 0 156 42q72 43 72 113t-40 108q-39 38 -127 70l-264 105q-153 59 -235 139t-82 234t130 251q130 99 354 99t346 -104t140 -289h-239q-33 174 -246 174q-105 0 -163 -42q-58 -41 -58 -101t38 -94t118 -62l288 -113q148 -57 228 -144t80 -219
q0 -180 -136 -285t-370 -105q-236 0 -373 108q-154 119 -162 336h240z" />
    <glyph glyph-name="T" unicode="T" horiz-adv-x="1089" 
d="M12 1329h1065v-209h-411v-1120h-242v1120h-412v209z" />
    <glyph glyph-name="U" unicode="U" horiz-adv-x="1413" 
d="M412 1329v-827q0 -164 83 -236t214 -72t214 72t83 236v827h241v-827q0 -254 -141 -392t-397 -138q-255 0 -397 138t-142 392v827h242z" />
    <glyph glyph-name="V" unicode="V" horiz-adv-x="1243" 
d="M297 1329l324 -1026l327 1026h254l-457 -1329h-253l-451 1329h256z" />
    <glyph glyph-name="W" unicode="W" horiz-adv-x="1978" 
d="M311 1329l293 -1010l285 922h164l301 -926l311 1014h272l-456 -1329h-254l-250 750l-248 -750h-254l-434 1329h270z" />
    <glyph glyph-name="X" unicode="X" horiz-adv-x="1400" 
d="M1329 0h-303l-350 471l-311 -471h-295l469 662l-471 667h297l335 -479l291 479h293l-448 -663z" />
    <glyph glyph-name="Y" unicode="Y" horiz-adv-x="1236" 
d="M731 0h-242v549l-456 780h286l293 -530l308 530h284l-473 -780v-549z" />
    <glyph glyph-name="Z" unicode="Z" horiz-adv-x="1288" 
d="M150 1329h1005v-207l-700 -899l700 -2v-221h-1005v209l702 897l-702 2v221z" />
    <glyph glyph-name="bracketleft" unicode="[" horiz-adv-x="720" 
d="M190 1618h506v-217h-264v-1471h264v-219h-506v1907z" />
    <glyph glyph-name="backslash" unicode="\" horiz-adv-x="966" 
d="M84 1528h246l528 -1692h-248z" />
    <glyph glyph-name="bracketright" unicode="]" horiz-adv-x="688" 
d="M498 -289h-506v219h264v1471h-264v217h506v-1907z" />
    <glyph glyph-name="asciicircum" unicode="^" horiz-adv-x="1079" 
d="M41 446l405 789h197l404 -789h-267l-235 504l-238 -504h-266z" />
    <glyph glyph-name="underscore" unicode="_" horiz-adv-x="1572" 
d="M113 -113h1349v-211h-1349v211z" />
    <glyph glyph-name="grave" unicode="`" horiz-adv-x="729" 
d="M135 1843l547 -270l-61 -152l-572 213z" />
    <glyph glyph-name="a" unicode="a" horiz-adv-x="1196" 
d="M567 422q-197 0 -196 -131q0 -55 45 -95t144 -40t164 66t69 167q-121 33 -226 33zM518 582q119 0 275 -39v98q0 105 -42 155q-41 50 -137 50t-147 -38t-51 -108h-264q0 170 119 246q120 76 335 76q307 0 398 -215q31 -74 30 -174v-633h-211l-18 133q-96 -162 -292 -162
q-196 1 -298 93t-102 230t108 213q109 75 297 75z" />
    <glyph glyph-name="b" unicode="b" horiz-adv-x="1257" 
d="M432 559v-131q4 -104 74 -171t167 -67t167 85t70 225t-69 222q-69 83 -171 83q-102 1 -170 -67t-68 -179zM1153 502q0 -234 -131 -382t-324 -149q-92 0 -169 49t-121 152l-60 -172h-158v1405h242v-535q94 152 282 152t313 -144q126 -144 126 -376z" />
    <glyph glyph-name="c" unicode="c" horiz-adv-x="1085" 
d="M580 805q-112 0 -176 -79q-64 -78 -64 -230t66 -229t158 -77t135 44q42 44 42 120h244q1 -164 -109 -274t-308 -109q-198 0 -334 149q-136 148 -138 384q0 236 137 377t327 141t304 -115q102 -98 121 -248l-244 -6q-16 66 -60 109t-101 43z" />
    <glyph glyph-name="d" unicode="d" horiz-adv-x="1257" 
d="M348 500q0 -138 70 -224t167 -86t168 71t70 179v129q-4 107 -68 171q-65 64 -167 64t-171 -82q-69 -83 -69 -222zM542 1022q186 0 281 -150v533h244v-1405h-199l-28 154q-92 -182 -282 -182t-322 148q-131 149 -132 382q0 232 126 376t312 144z" />
    <glyph glyph-name="e" unicode="e" horiz-adv-x="1085" 
d="M565 829q-102 -1 -159 -67t-68 -170h424q0 162 -103 217q-39 20 -94 20zM563 166q150 0 178 131h244q-25 -150 -139 -238t-298 -88q-182 0 -317 147q-135 148 -135 384t134 378t337 142t318 -145q51 -66 84 -174t10 -265h-643q4 -120 59 -196t168 -76z" />
    <glyph glyph-name="f" unicode="f" horiz-adv-x="749" 
d="M82 995h147v117q0 154 86 232t217 77q84 0 207 -24l-47 -187q-120 42 -184 -5q-35 -26 -35 -95v-115h182v-161h-182v-834h-244v834h-147v161z" />
    <glyph glyph-name="g" unicode="g" horiz-adv-x="1191" 
d="M588 854q-94 0 -144 -52t-49 -135q0 -83 49 -137q50 -54 144 -53q94 0 140 53q46 52 46 136t-46 136t-140 52zM268 -168q0 -70 81 -112t192 -42q184 0 278 68q92 61 92 148q1 36 -25 60t-75 23h-350q-193 -8 -193 -145zM564 1022q158 0 265 -59q11 117 99 189t205 71
l-13 -232q-176 0 -182 -117q76 -94 76 -192q0 -180 -129 -276q-123 -98 -299 -99q-100 0 -183 31q-82 -25 -81 -98q0 -92 155 -93h334q340 0 340 -237q0 -80 -40 -157t-116 -136q-168 -131 -418 -131t-398 98t-148 238q0 92 56 146t149 69q-121 74 -121 182q1 73 45 121
t116 68q-120 102 -120 260t125 256t283 98z" />
    <glyph glyph-name="h" unicode="h" horiz-adv-x="1275" 
d="M731 1022q197 0 290 -121t93 -319v-582h-242v582q0 111 -53 167t-149 56t-165 -86t-73 -258v-461h-242v1405h242v-571q102 188 299 188z" />
    <glyph glyph-name="i" unicode="i" horiz-adv-x="671" 
d="M182 1317q0 65 39 103t110 38t111 -38t39 -104q0 -66 -40 -103q-41 -37 -111 -37t-109 38t-39 103zM211 997h242v-997h-242v997z" />
    <glyph glyph-name="j" unicode="j" horiz-adv-x="686" 
d="M59 -303q88 0 127 42t39 146v1114h242v-1118q0 -213 -89 -304q-90 -91 -232 -91t-302 63l4 209q123 -61 211 -61zM195 1317q-1 65 39 103t111 38t110 -38t39 -104t-39 -103t-110 -37t-111 37q-39 38 -39 104z" />
    <glyph glyph-name="k" unicode="k" horiz-adv-x="1177" 
d="M432 0h-242v1405h242v-760l393 350h328l-440 -368l465 -627h-295l-340 485l-111 -92v-393z" />
    <glyph glyph-name="l" unicode="l" 
d="M190 1405h242v-1405h-242v1405z" />
    <glyph glyph-name="m" unicode="m" horiz-adv-x="1943" 
d="M743 1022q244 0 332 -215q96 215 338 215q179 0 275 -118t96 -322v-582h-244v582q0 111 -53 167t-149 56t-158 -84q-61 -84 -66 -254v-467h-242v582q0 111 -53 167t-149 56t-165 -86t-73 -258v-461h-242v995h211l27 -172q98 199 315 199z" />
    <glyph glyph-name="n" unicode="n" horiz-adv-x="1275" 
d="M743 1022q183 0 277 -121t94 -319v-582h-242v582q0 111 -53 167t-149 56t-165 -86t-73 -258v-461h-242v995h211l27 -172q98 199 315 199z" />
    <glyph glyph-name="o" unicode="o" horiz-adv-x="1159" 
d="M589 813q-109 0 -179 -79q-70 -78 -70 -236t62 -237t171 -79t179 79t70 237t-62 236q-61 79 -171 79zM1063 498q0 -252 -134 -390t-347 -137q-213 0 -349 136q-137 137 -137 391t136 389t349 135q214 0 348 -136t134 -388z" />
    <glyph glyph-name="p" unicode="p" horiz-adv-x="1249" 
d="M909 496q0 144 -70 227q-71 82 -172 82q-101 -1 -166 -59t-69 -166v-179q0 -95 66 -153t161 -58q96 0 173 81t77 225zM694 1022q188 0 324 -143t135 -382q0 -239 -136 -382q-137 -143 -319 -143t-266 108v-565h-242v1480h199l23 -135q94 162 282 162z" />
    <glyph glyph-name="q" unicode="q" horiz-adv-x="1249" 
d="M340 497q0 -143 77 -225t170 -82t159 54t69 147v178q1 113 -65 174t-167 61t-172 -81q-71 -82 -71 -226zM554 -29q-186 0 -316 140q-142 147 -142 385t133 382t320 144q92 0 171 -44t128 -136l53 153h158v-1149q-1 -88 21 -116t48 -42q26 -13 66 -26l-70 -176
q-168 41 -238 131t-71 248v264q-75 -158 -261 -158z" />
    <glyph glyph-name="r" unicode="r" horiz-adv-x="851" 
d="M702 1014q35 0 89 -15l-5 -241q-57 12 -112 12q-242 0 -242 -334v-436h-242v997h242v-198q90 215 270 215z" />
    <glyph glyph-name="s" unicode="s" horiz-adv-x="1079" 
d="M532 162q78 0 128 34t50 78t-30 70q-31 25 -96 45l-217 78q-242 84 -242 274q0 127 114 204t305 77q190 0 294 -84t108 -211h-227q-4 49 -47 78t-123 29t-124 -32t-44 -73q0 -72 121 -106l235 -88q117 -39 179 -99t62 -170t-118 -202q-120 -92 -318 -92t-319 86
q-121 87 -123 245h226q4 -141 206 -141z" />
    <glyph glyph-name="t" unicode="t" horiz-adv-x="808" 
d="M205 276v558h-139v161h139v262h241v-262h271v-161h-271v-549q0 -123 117 -123q59 0 154 33l35 -170q-135 -53 -213 -53q-149 -1 -240 73q-94 84 -94 231z" />
    <glyph glyph-name="u" unicode="u" horiz-adv-x="1284" 
d="M170 362v635h242v-610q0 -98 47 -146t115 -48q128 1 201 83t77 230v491h242v-997h-242v180q-94 -199 -303 -198q-264 0 -348 206q-31 72 -31 174z" />
    <glyph glyph-name="v" unicode="v" horiz-adv-x="1062" 
d="M303 995l227 -755l230 755h278l-370 -995h-273l-370 995h278z" />
    <glyph glyph-name="w" unicode="w" horiz-adv-x="1552" 
d="M279 995l200 -710l191 655h219l190 -657l203 712h242l-328 -995h-238l-184 596l-180 -596h-240l-329 995h254z" />
    <glyph glyph-name="x" unicode="x" horiz-adv-x="1134" 
d="M1100 0h-295l-246 319l-229 -319h-297l387 496l-387 501h297l243 -319l232 319h295l-385 -501z" />
    <glyph glyph-name="y" unicode="y" horiz-adv-x="1032" 
d="M265 -514q-132 0 -265 65v213q106 -68 215 -67q72 0 118 57t75 150l30 96l-399 995h274l240 -716l209 716h246l-381 -1175q-59 -178 -145 -256t-217 -78z" />
    <glyph glyph-name="z" unicode="z" horiz-adv-x="1013" 
d="M117 799v196h782v-196l-500 -602h500v-197h-782v197l516 602h-516z" />
    <glyph glyph-name="braceleft" unicode="{" horiz-adv-x="800" 
d="M793 -319q-269 0 -399 138t-130 378v186q0 86 -13 118t-54 31h-52v244h52q41 0 54 32t13 118v188q0 367 289 475q100 39 240 39v-219q-152 0 -221 -73t-68 -226v-197q0 -98 -38 -161t-97 -93v-10q59 -29 97 -92t38 -162v-196q0 -154 68 -227t221 -72v-219z" />
    <glyph glyph-name="bar" unicode="|" 
d="M190 1579h242v-1829h-242v1829z" />
    <glyph glyph-name="braceright" unicode="}" horiz-adv-x="800" 
d="M8 -100q152 0 220 72t69 227v196q0 97 38 161t97 93v10q-59 29 -97 93t-38 161v197q0 154 -69 226t-220 73v219q268 0 398 -138t131 -376v-188q0 -86 13 -118t54 -32h51v-244h-51q-41 0 -54 -32t-13 -117v-186q0 -369 -289 -480q-100 -37 -240 -36v219z" />
    <glyph glyph-name="asciitilde" unicode="~" horiz-adv-x="1167" 
d="M377 543q-78 0 -131 -125l-129 69q35 133 97 210t165 77q70 0 214 -56t193 -54q84 0 134 114l131 -84q-82 -260 -283 -260q-68 0 -209 58q-75 27 -113 39t-69 12z" />
    <glyph glyph-name="sterling" unicode="&#xa3;" horiz-adv-x="1232" 
d="M489 737h351v-162h-351v-161q0 -133 -73 -195h278q102 0 147 38q44 38 54 120h264q-8 -188 -110 -279q-115 -98 -353 -98h-651v219h66q77 0 107 43t30 135v178h-170v162h170v172q0 221 114 334q115 113 304 113q344 0 393 -359h-238q-21 140 -163 140q-72 1 -120 -55
t-49 -173v-172z" />
    <glyph glyph-name="dieresis" unicode="&#xa8;" horiz-adv-x="782" 
d="M444 1712q0 59 41 98t103 39t104 -39q41 -39 41 -98t-41 -96t-103 -37t-104 37q-41 37 -41 96zM49 1711q0 58 40 97q39 39 103 39t105 -39t41 -97t-41 -96t-105 -38t-103 38q-40 38 -40 96z" />
    <glyph glyph-name="acute" unicode="&#xb4;" horiz-adv-x="729" 
d="M680 1634l-571 -213l-62 152l547 270z" />
    <glyph glyph-name="Agrave" unicode="&#xc0;" horiz-adv-x="1282" 
d="M457 469h372l-184 571zM420 1843l547 -270l-62 -152l-571 213zM498 1329h303l436 -1329h-256l-92 287h-494l-94 -287h-256z" />
    <glyph glyph-name="Aacute" unicode="&#xc1;" horiz-adv-x="1282" 
d="M457 469h372l-184 571zM965 1634l-572 -213l-61 152l547 270zM498 1329h303l436 -1329h-256l-92 287h-494l-94 -287h-256z" />
    <glyph glyph-name="Acircumflex" unicode="&#xc2;" horiz-adv-x="1282" 
d="M457 469h372l-184 571zM1073 1540l-153 -121l-273 207l-274 -207l-154 121l428 330zM498 1329h303l436 -1329h-256l-92 287h-494l-94 -287h-256z" />
    <glyph glyph-name="Atilde" unicode="&#xc3;" horiz-adv-x="1282" 
d="M457 469h372l-184 571zM791 1716q66 0 108 101l102 -68q-23 -111 -81 -181t-117 -71q-60 0 -160 51t-133 51q-72 0 -121 -102l-96 57q25 125 83 194t124 69t141 -38q73 -39 99 -51t51 -12zM498 1329h303l436 -1329h-256l-92 287h-494l-94 -287h-256z" />
    <glyph glyph-name="Adieresis" unicode="&#xc4;" horiz-adv-x="1282" 
d="M700 1669q0 59 41 98t103 39t104 -39q41 -39 41 -98t-41 -96t-103 -37t-104 37q-41 37 -41 96zM305 1668q0 58 40 97q39 39 103 39t105 -39t41 -97t-41 -96t-105 -38t-103 38q-40 38 -40 96zM457 469h372l-184 571zM498 1329h303l436 -1329h-256l-92 287h-494l-94 -287
h-256z" />
    <glyph glyph-name="Egrave" unicode="&#xc8;" horiz-adv-x="1204" 
d="M389 1843l547 -270l-62 -152l-571 213zM188 1329h856v-209h-614v-350h576v-209h-576v-350h614v-211h-856v1329z" />
    <glyph glyph-name="Eacute" unicode="&#xc9;" horiz-adv-x="1204" 
d="M934 1634l-572 -213l-61 152l547 270zM188 0v1329h856v-209h-614v-350h576v-209h-576v-350h614v-211h-856z" />
    <glyph glyph-name="Ecircumflex" unicode="&#xca;" horiz-adv-x="1204" 
d="M1065 1540l-154 -121l-272 207l-274 -207l-154 121l428 330zM209 1329h856v-209h-614v-350h575v-209h-575v-350h614v-211h-856v1329z" />
    <glyph glyph-name="Edieresis" unicode="&#xcb;" horiz-adv-x="1204" 
d="M672 1669q0 59 41 98t103 39t104 -39t41 -98q0 -59 -41 -96q-42 -37 -104 -37t-103 37t-41 96zM276 1668q0 58 40 97t104 39t104 -39q41 -39 41 -97t-41 -96q-40 -38 -104 -38t-104 38t-40 96zM188 1329h856v-209h-614v-350h576v-209h-576v-350h614v-211h-856v1329z" />
    <glyph glyph-name="Igrave" unicode="&#xcc;" 
d="M84 1843l547 -270l-62 -152l-571 213zM190 1329h242v-1329h-242v1329z" />
    <glyph glyph-name="Iacute" unicode="&#xcd;" 
d="M629 1634l-572 -213l-61 152l547 270zM190 0v1329h242v-1329h-242z" />
    <glyph glyph-name="Icircumflex" unicode="&#xce;" 
d="M739 1540l-153 -121l-273 207l-274 -207l-154 121l428 330zM190 1329h242v-1329h-242v1329z" />
    <glyph glyph-name="Idieresis" unicode="&#xcf;" 
d="M367 1669q0 59 41 98t103 39t103 -39t41 -98t-41 -96t-103 -37t-103 37t-41 96zM-29 1668q0 58 40 97q39 39 103 39t105 -39t41 -97t-41 -96t-105 -38t-103 38q-40 38 -40 96zM190 1329h242v-1329h-242v1329z" />
    <glyph glyph-name="Ntilde" unicode="&#xd1;" horiz-adv-x="1474" 
d="M879 1716q66 0 108 101l103 -68q-23 -111 -81 -181t-117 -71q-59 0 -160 51t-134 51q-72 0 -121 -102l-96 57q25 125 83 194t124 69t141 -38q73 -39 99 -51t51 -12zM186 1329h265l585 -942v942h242v-1329h-246l-604 975v-975h-242v1329z" />
    <glyph glyph-name="Ograve" unicode="&#xd2;" horiz-adv-x="1398" 
d="M467 1843l547 -270l-62 -152l-571 213zM700 1139q-162 0 -258 -124t-96 -352q0 -229 96 -351t258 -122t257 122t95 350t-95 353q-95 124 -257 124zM1303 665q0 -337 -168 -522q-159 -172 -435 -172t-440 179q-164 180 -164 518t162 513t439 175q276 0 441 -177t165 -514z
" />
    <glyph glyph-name="Oacute" unicode="&#xd3;" horiz-adv-x="1398" 
d="M1012 1634l-572 -213l-61 152l547 270zM346 663q0 -229 96 -351t258 -122t257 122t95 350t-94 353q-96 124 -258 124t-258 -124t-96 -352zM1303 665q0 -337 -168 -522q-159 -172 -435 -172t-440 179q-164 180 -164 518t163 513t438 175t441 -177t165 -514z" />
    <glyph glyph-name="Ocircumflex" unicode="&#xd4;" horiz-adv-x="1398" 
d="M1124 1540l-153 -121l-273 207l-274 -207l-154 121l428 330zM700 1139q-162 0 -258 -124t-96 -352q0 -229 96 -351t258 -122t257 122t95 350t-95 353q-95 124 -257 124zM1303 665q0 -337 -168 -522q-159 -172 -435 -172t-440 179q-164 180 -164 518t162 513t439 175
q276 0 441 -177t165 -514z" />
    <glyph glyph-name="Otilde" unicode="&#xd5;" horiz-adv-x="1398" 
d="M842 1716q66 0 108 101l103 -68q-23 -111 -81 -181t-117 -71q-59 0 -160 51t-134 51q-72 0 -121 -102l-96 57q25 125 83 194q59 69 125 69t140 -38q74 -39 100 -51t50 -12zM346 663q0 -229 96 -351t258 -122t257 122t95 350t-94 353q-96 124 -258 124t-258 -124t-96 -352
zM1303 665q0 -337 -168 -522q-159 -172 -435 -172t-440 179q-164 180 -164 518t163 513t438 175t441 -177t165 -514z" />
    <glyph glyph-name="Odieresis" unicode="&#xd6;" horiz-adv-x="1398" 
d="M752 1669q0 59 41 98t103 39t103 -39t41 -98t-41 -96t-103 -37t-103 37t-41 96zM356 1668q0 58 40 97t104 39t104 -39q41 -39 41 -97t-41 -96q-40 -38 -104 -38t-104 38t-40 96zM700 1139q-162 0 -258 -124t-96 -352q0 -229 96 -351t258 -122t257 122t95 350t-95 353
q-95 124 -257 124zM1303 665q0 -337 -168 -522q-159 -172 -435 -172t-440 179q-164 180 -164 518t162 513t439 175q276 0 441 -177t165 -514z" />
    <glyph glyph-name="Ugrave" unicode="&#xd9;" horiz-adv-x="1413" 
d="M477 1843l547 -270l-61 -152l-572 213zM412 1329v-827q0 -164 83 -236t214 -72t214 72t83 236v827h241v-827q0 -254 -141 -392t-397 -138q-255 0 -397 138t-142 392v827h242z" />
    <glyph glyph-name="Uacute" unicode="&#xda;" horiz-adv-x="1413" 
d="M1022 1634l-571 -213l-62 152l547 270zM170 1329h242v-827q0 -164 83 -236t214 -72t214 72t83 236v827h241v-827q0 -254 -141 -392t-397 -138q-255 0 -397 138t-142 392v827z" />
    <glyph glyph-name="Ucircumflex" unicode="&#xdb;" horiz-adv-x="1413" 
d="M1135 1540l-154 -121l-272 207l-275 -207l-153 121l428 330zM412 1329v-827q0 -164 83 -236t214 -72t214 72t83 236v827h241v-827q0 -254 -141 -392t-397 -138q-255 0 -397 138t-142 392v827h242z" />
    <glyph glyph-name="Udieresis" unicode="&#xdc;" horiz-adv-x="1413" 
d="M764 1669q0 59 41 98t103 39t104 -39t41 -98q0 -59 -41 -96q-42 -37 -104 -37t-103 37t-41 96zM369 1668q0 58 40 97t103 39t104 -39t41 -97t-41 -96t-104 -38t-103 38t-40 96zM412 1329v-827q0 -164 83 -236t214 -72t214 72t83 236v827h241v-827q0 -254 -141 -392
t-397 -138q-255 0 -397 138t-142 392v827h242z" />
    <glyph glyph-name="agrave" unicode="&#xe0;" horiz-adv-x="1198" 
d="M567 422q-197 0 -196 -131q0 -55 45 -95t144 -40t164 66t69 167q-121 33 -226 33zM379 1565l547 -271l-62 -151l-571 213zM518 582q119 0 275 -39v98q0 105 -42 155q-41 50 -137 50t-147 -38t-51 -108h-264q0 170 119 246q120 76 335 76q307 0 398 -215q31 -74 30 -174
v-633h-211l-18 133q-96 -162 -292 -162q-196 1 -298 93t-102 230t108 213q109 75 297 75z" />
    <glyph glyph-name="aacute" unicode="&#xe1;" horiz-adv-x="1198" 
d="M567 422q-197 0 -196 -131q0 -55 45 -95t144 -40t164 66t69 167q-121 33 -226 33zM924 1356l-572 -213l-61 151l547 271zM518 582q119 0 275 -39v98q0 105 -42 155q-41 50 -137 50t-147 -38t-51 -108h-264q0 170 119 246q120 76 335 76q307 0 398 -215q31 -74 30 -174
v-633h-211l-18 133q-96 -162 -292 -162q-196 1 -298 93t-102 230t108 213q109 75 297 75z" />
    <glyph glyph-name="acircumflex" unicode="&#xe2;" horiz-adv-x="1198" 
d="M567 422q-197 0 -196 -131q0 -55 45 -95t144 -40t164 66t69 167q-121 33 -226 33zM1036 1262l-153 -121l-273 207l-274 -207l-154 121l428 329zM518 582q119 0 275 -39v98q0 105 -42 155q-41 50 -137 50t-147 -38t-51 -108h-264q0 170 119 246q120 76 335 76
q307 0 398 -215q31 -74 30 -174v-633h-211l-18 133q-96 -162 -292 -162q-196 1 -298 93t-102 230t108 213q109 75 297 75z" />
    <glyph glyph-name="atilde" unicode="&#xe3;" horiz-adv-x="1198" 
d="M567 422q-197 0 -196 -131q0 -55 45 -95t144 -40t164 66t69 167q-121 33 -226 33zM754 1438q66 0 108 100l103 -68q-23 -112 -81 -182t-118 -70t-160 52q-100 51 -133 51q-72 0 -121 -102l-96 57q25 126 83 194q59 68 125 68t140 -38t100 -50t50 -12zM518 582
q119 0 275 -39v98q0 105 -42 155q-41 50 -137 50t-147 -38t-51 -108h-264q0 170 119 246q120 76 335 76q307 0 398 -215q31 -74 30 -174v-633h-211l-18 133q-96 -162 -292 -162q-196 1 -298 93t-102 230t108 213q109 75 297 75z" />
    <glyph glyph-name="adieresis" unicode="&#xe4;" horiz-adv-x="1198" 
d="M664 1391q0 59 41 98t103 39t103 -39t41 -98t-41 -97t-103 -37q-62 -1 -103 37t-41 97zM268 1390q0 58 40 97t104 39t104 -39q41 -39 41 -97t-41 -96q-40 -38 -104 -39q-64 0 -104 38q-40 39 -40 97zM567 422q-197 0 -196 -131q0 -55 45 -95t144 -40t164 66t69 167
q-121 33 -226 33zM518 582q119 0 275 -39v98q0 105 -42 155q-41 50 -137 50t-147 -38t-51 -108h-264q0 170 119 246q120 76 335 76q307 0 398 -215q31 -74 30 -174v-633h-211l-18 133q-96 -162 -292 -162q-196 1 -298 93t-102 230t108 213q109 75 297 75z" />
    <glyph glyph-name="egrave" unicode="&#xe8;" horiz-adv-x="1085" 
d="M565 829q-102 -1 -159 -67t-68 -170h424q0 162 -103 217q-39 20 -94 20zM315 1585l547 -270l-61 -152l-572 213zM563 166q150 0 178 131h244q-25 -150 -139 -238t-298 -88q-182 0 -317 147q-135 148 -135 384t134 378t337 142t318 -145q51 -66 84 -174t10 -265h-643
q4 -120 59 -196t168 -76z" />
    <glyph glyph-name="eacute" unicode="&#xe9;" horiz-adv-x="1085" 
d="M762 592q0 104 -47 171t-149 67t-160 -68q-57 -66 -68 -170h424zM860 1376l-571 -213l-62 152l547 270zM548 -29q-182 0 -317 147q-135 148 -135 384t134 378t337 142t318 -145q51 -66 84 -174t10 -265h-643q4 -120 59 -196t168 -76q149 0 178 131h244
q-25 -150 -139 -238q-116 -88 -298 -88z" />
    <glyph glyph-name="ecircumflex" unicode="&#xea;" horiz-adv-x="1085" 
d="M580 829q-102 0 -160 -66q-57 -67 -68 -171h424q0 162 -104 217q-37 20 -92 20zM983 1282l-154 -121l-272 207l-274 -207l-154 121l428 330zM578 166q150 0 178 131h243q-25 -150 -139 -238t-297 -88q-182 0 -317 147q-135 148 -135 384t134 378t337 142t315 -145
q53 -66 86 -174t10 -265h-643q4 -120 60 -196t168 -76z" />
    <glyph glyph-name="edieresis" unicode="&#xeb;" horiz-adv-x="1085" 
d="M598 1391q0 59 41 98t103 39t104 -39t41 -98q0 -59 -41 -97q-42 -38 -104 -37q-62 -1 -103 37t-41 97zM203 1390q0 58 40 97t103 39q62 0 104 -39t42 -97t-41 -96t-105 -39q-64 0 -103 38q-40 39 -40 97zM565 829q-102 -1 -159 -67t-68 -170h424q0 162 -103 217
q-39 20 -94 20zM563 166q150 0 178 131h244q-25 -150 -139 -238t-298 -88q-182 0 -317 147q-135 148 -135 384t134 378t337 142t318 -145q51 -66 84 -174t10 -265h-643q4 -120 59 -196t168 -76z" />
    <glyph glyph-name="igrave" unicode="&#xec;" horiz-adv-x="671" 
d="M102 1565l547 -271l-61 -151l-572 213zM211 997h242v-997h-242v997z" />
    <glyph glyph-name="iacute" unicode="&#xed;" horiz-adv-x="671" 
d="M647 1356l-571 -213l-62 151l547 271zM211 0v997h242v-997h-242z" />
    <glyph glyph-name="icircumflex" unicode="&#xee;" horiz-adv-x="671" 
d="M758 1262l-154 -121l-272 207l-275 -207l-153 121l428 329zM211 997h242v-997h-242v997z" />
    <glyph glyph-name="idieresis" unicode="&#xef;" horiz-adv-x="671" 
d="M385 1391q0 59 41 98t103 39q61 0 103 -39t42 -98t-41 -97t-103 -37q-62 -1 -104 37q-41 38 -41 97zM-10 1390q0 58 40 97t103 39t105 -39t41 -97q0 -58 -41 -96q-40 -38 -104 -39q-64 0 -104 38q-40 39 -40 97zM211 997h242v-997h-242v997z" />
    <glyph glyph-name="ntilde" unicode="&#xf1;" horiz-adv-x="1275" 
d="M786 1438q66 0 109 100l102 -68q-23 -112 -81 -182t-118 -70t-159 52q-100 51 -133 51q-72 0 -121 -102l-96 57q25 126 83 194t124 68t141 -38q74 -38 99 -50t50 -12zM743 1022q183 0 277 -121t94 -319v-582h-242v582q0 111 -53 167t-149 56t-165 -86t-73 -258v-461h-242
v995h211l27 -172q98 199 315 199z" />
    <glyph glyph-name="ograve" unicode="&#xf2;" horiz-adv-x="1159" 
d="M352 1565l547 -271l-61 -151l-572 213zM589 813q-109 0 -179 -79q-70 -78 -70 -236t62 -237t171 -79t179 79t70 237t-62 236q-61 79 -171 79zM1063 498q0 -252 -134 -390t-347 -137q-213 0 -349 136q-137 137 -137 391t136 389t349 135q214 0 348 -136t134 -388z" />
    <glyph glyph-name="oacute" unicode="&#xf3;" horiz-adv-x="1159" 
d="M897 1356l-571 -213l-62 151l547 271zM340 498q0 -158 62 -237t171 -79t179 79t69 237q0 158 -61 236q-60 78 -170 79q-110 0 -180 -79q-70 -78 -70 -236zM1063 498q0 -252 -134 -390t-347 -137q-213 0 -349 136q-137 137 -137 391t136 389t349 135q214 0 348 -136
t134 -388z" />
    <glyph glyph-name="ocircumflex" unicode="&#xf4;" horiz-adv-x="1159" 
d="M1008 1262l-154 -121l-272 207l-275 -207l-153 121l428 329zM589 813q-109 0 -179 -79q-70 -78 -70 -236t62 -237t171 -79t179 79t70 237t-62 236q-61 79 -171 79zM1063 498q0 -252 -134 -390t-347 -137q-213 0 -349 136q-137 137 -137 391t136 389t349 135
q214 0 348 -136t134 -388z" />
    <glyph glyph-name="otilde" unicode="&#xf5;" horiz-adv-x="1159" 
d="M723 1438q66 0 108 100l103 -68q-23 -112 -81 -182t-117 -70t-160 52q-101 51 -134 51q-72 0 -120 -102l-97 57q25 126 83 194t124 68t141 -38q73 -38 99 -50t51 -12zM340 498q0 -158 62 -237t171 -79t179 79t69 237q0 158 -61 236q-60 78 -170 79q-110 0 -180 -79
q-70 -78 -70 -236zM1063 498q0 -252 -134 -390t-347 -137q-213 0 -349 136q-137 137 -137 391t136 389t349 135q214 0 348 -136t134 -388z" />
    <glyph glyph-name="odieresis" unicode="&#xf6;" horiz-adv-x="1159" 
d="M635 1391q0 59 41 98t103 39q61 0 103 -39t42 -98t-41 -97t-103 -37q-62 -1 -104 37q-41 38 -41 97zM240 1390q0 58 40 97t103 39t104 -39t41 -97t-41 -96t-104 -39q-63 0 -103 38q-40 39 -40 97zM589 813q-109 0 -179 -79q-70 -78 -70 -236t62 -237t171 -79t179 79
t70 237t-62 236q-61 79 -171 79zM1063 498q0 -252 -134 -390t-347 -137q-213 0 -349 136q-137 137 -137 391t136 389t349 135q214 0 348 -136t134 -388z" />
    <glyph glyph-name="ugrave" unicode="&#xf9;" horiz-adv-x="1284" 
d="M412 1606l546 -271l-61 -151l-571 213zM170 362v635h242v-610q0 -98 47 -146t115 -48q128 1 201 83t77 230v491h242v-997h-242v180q-94 -199 -303 -198q-264 0 -348 206q-31 72 -31 174z" />
    <glyph glyph-name="uacute" unicode="&#xfa;" horiz-adv-x="1284" 
d="M956 1397l-571 -213l-61 151l546 271zM549 -18q-175 0 -277 94t-102 286v635h242v-610q0 -98 47 -146t146 -48q99 -1 173 85t74 244v475h242v-997h-242v180q-94 -198 -303 -198z" />
    <glyph glyph-name="ucircumflex" unicode="&#xfb;" horiz-adv-x="1284" 
d="M1067 1303l-154 -121l-272 207l-274 -207l-154 121l428 329zM170 362v635h242v-610q0 -98 47 -146t115 -48q128 1 201 83t77 230v491h242v-997h-242v180q-94 -199 -303 -198q-264 0 -348 206q-31 72 -31 174z" />
    <glyph glyph-name="udieresis" unicode="&#xfc;" horiz-adv-x="1284" 
d="M694 1391q0 59 41 98t103 39t104 -39q41 -39 41 -98t-41 -97t-103 -37q-62 0 -104 37q-41 38 -41 97zM299 1390q0 58 40 97t103 39q62 0 104 -39t42 -97t-41 -96t-105 -39q-64 0 -103 38q-40 39 -40 97zM170 362v635h242v-610q0 -98 47 -146t115 -48q128 1 201 83t77 230
v491h242v-997h-242v180q-94 -199 -303 -198q-264 0 -348 206q-31 72 -31 174z" />
    <glyph glyph-name="dotlessi" unicode="&#x131;" 
d="M190 997h242v-997h-242v997z" />
    <glyph glyph-name="apostrophe" unicode="&#x2bc;" horiz-adv-x="485" 
d="M125 1197q0 60 47 103t129 43t133 -63t51 -156q0 -150 -135 -272q-43 -39 -96 -66l-180 91q68 35 120 77t68 101q-57 10 -97 46t-40 96z" />
    <glyph glyph-name="circumflex" unicode="&#x2c6;" horiz-adv-x="952" 
d="M903 1540l-153 -121l-273 207l-274 -207l-154 121l428 330z" />
    <glyph glyph-name="tilde" unicode="&#x2dc;" horiz-adv-x="806" 
d="M545 1716q66 0 108 101l103 -68q-23 -111 -81 -181t-118 -71q-60 0 -160 51t-133 51q-72 0 -121 -102l-96 57q25 125 83 194t124 69t141 -38q73 -39 99 -51t51 -12z" />
    <glyph glyph-name="endash" unicode="&#x2013;" horiz-adv-x="1075" 
d="M113 723h850v-211h-850v211z" />
    <glyph glyph-name="emdash" unicode="&#x2014;" horiz-adv-x="1572" 
d="M113 723h1349v-211h-1349v211z" />
    <glyph glyph-name="quoteleft" unicode="&#x2018;" horiz-adv-x="555" 
d="M260 776q-82 0 -134 65t-52 159t66 188q67 92 177 147l170 -94q-158 -74 -190 -178q57 -10 97 -45q40 -36 40 -96t-46 -103t-128 -43z" />
    <glyph glyph-name="quoteright" unicode="&#x2019;" horiz-adv-x="555" 
d="M286 1335q81 -1 133 -65t52 -159t-67 -187t-177 -148l-168 92q158 80 191 181q-59 10 -99 45t-40 96t47 103t128 42z" />
    <glyph glyph-name="rupeesymbol" unicode="&#x20a8;" horiz-adv-x="1236" 
d="M170 1329h950v-135h-372q123 -74 153 -193h219v-137h-213q-14 -131 -110 -224t-299 -124l534 -516h-340l-522 504v137h158q150 3 226 65t93 158h-477v137h469q-23 86 -102 140q-80 53 -226 53h-141v135z" />
    <glyph glyph-name="minus" unicode="&#x2212;" horiz-adv-x="1036" 
d="M874 723v-211h-712v211h712z" />
    <glyph glyph-name="zero.propold" horiz-adv-x="1167" 
d="M829 584q-1 393 -245 393t-244 -393t245 -394q244 1 244 394zM584 1194q217 0 351 -160t134 -450t-133 -452q-133 -161 -352 -161q-220 0 -354 162t-134 451q0 290 136 450t352 160z" />
    <glyph glyph-name="one.propold" horiz-adv-x="731" 
d="M539 1169v-1169h-242v881q-98 -49 -211 -54v234q152 18 270 108h183z" />
    <glyph glyph-name="two.propold" horiz-adv-x="1218" 
d="M641 983q-207 0 -227 -164h-269q5 183 137 279t340 96t334 -104t127 -256q0 -152 -81 -235t-261 -128l-215 -53q-163 -44 -161 -148v-49h727v-221h-969v201q0 170 77 259t242 130l195 47q113 29 159 75t46 114t-54 112q-54 45 -147 45z" />
    <glyph glyph-name="three.propold" horiz-adv-x="1204" 
d="M1026 834q0 -205 -215 -289q125 -47 193 -145t68 -209q-1 -201 -144 -318q-142 -117 -364 -117t-372 112t-151 327h246q8 -123 84 -179q75 -56 191 -55q116 0 191 66q75 67 75 165t-74 165t-209 67h-137v190h124q117 0 185 50t67 137q0 86 -59 138t-159 52t-164 -46
q-65 -46 -76 -130h-258q35 295 301 359q86 20 191 20q209 0 337 -101q129 -101 129 -259z" />
    <glyph glyph-name="four.propold" horiz-adv-x="1220" 
d="M723 283v538l-420 -538h420zM954 1176v-867h230v-209h-230v-321h-243v321h-674v183l680 893h237z" />
    <glyph glyph-name="five.propold" horiz-adv-x="1206" 
d="M1030 1190v-221h-559l-31 -320q92 25 196 25q206 0 335 -120t129 -322t-148 -340q-148 -136 -357 -136q-210 0 -344 116t-134 316h239q0 -104 64 -157t173 -53t187 70t78 186t-73 180t-222 63h-377l64 713h780z" />
    <glyph glyph-name="six.propold" horiz-adv-x="1243" 
d="M430 404q0 -96 67 -153q67 -56 163 -56t165 56q68 56 68 152q-1 97 -67 155t-164 58t-165 -58t-67 -154zM683 1137q-158 1 -251 -139q-92 -140 -92 -377q0 -88 6 -134q23 176 126 252t247 76q184 0 304 -117t120 -305t-133 -305t-348 -117q-250 1 -408 189t-158 481
q0 340 156 527t420 188q200 0 324 -108t132 -283h-258q-10 80 -57 126t-130 46z" />
    <glyph glyph-name="seven.propold" horiz-adv-x="1019" 
d="M983 1194v-209l-614 -1198h-295l661 1196h-686v211h934z" />
    <glyph glyph-name="eight.propold" horiz-adv-x="1325" 
d="M928 960q0 80 -74 129q-74 48 -190 48t-193 -43q-76 -43 -76 -120t135 -132l154 -60q98 0 172 49q72 49 72 129zM975 332q0 58 -38 95q-38 36 -103 62l-213 80q-186 -12 -252 -118q-19 -31 -19 -72t25 -76q77 -108 297 -108q148 -1 226 39q77 40 77 98zM1178 975
q0 -100 -69 -179t-198 -102q170 -68 242 -144t72 -198q0 -170 -151 -275q-152 -105 -408 -105t-412 110q-154 106 -154 276q0 125 87 202t223 93q-178 86 -242 224q-23 51 -23 116q1 168 135 265q134 98 366 98t382 -108t150 -273z" />
    <glyph glyph-name="nine.propold" horiz-adv-x="1247" 
d="M588 983q-109 0 -169 -63q-61 -64 -61 -162t62 -162t170 -64q109 0 170 66t61 162t-62 160t-171 63zM606 1194q122 0 228 -60t178 -159q141 -201 141 -515q-1 -314 -151 -508q-150 -196 -404 -196q-203 0 -337 117t-134 303h254q6 -94 60 -146t157 -53q162 1 238 143
t75 384q0 76 -8 145q-19 -155 -117 -235t-233 -80q-188 0 -316 121t-128 308t134 309t363 122z" />
    </font>
</defs>
</svg>
